<?xml version="1.0" encoding="utf-8"?>
<!-- Generator: Adobe Illustrator 17.0.2, SVG Export Plug-In . SVG Version: 6.00 Build 0)  -->
<!DOCTYPE svg PUBLIC "-//W3C//DTD SVG 1.1//EN" "http://www.w3.org/Graphics/SVG/1.1/DTD/svg11.dtd" [
	<!ENTITY st0 "fill:#FFFFFF;">
	<!ENTITY st1 "fill:#0E83CD;">
]>
<svg version="1.1" id="layer_1" xmlns="http://www.w3.org/2000/svg" xmlns:xlink="http://www.w3.org/1999/xlink" x="0px" y="0px"
	 width="1500px" height="512px" viewBox="-0.1 0 1500 512" style="enable-background:new -0.1 0 1500 512;" xml:space="preserve">
<rect x="-0.1" style="&st0;" width="1500" height="512"/>
<g>
	<rect x="-0.1" style="&st1;" width="190.5" height="512"/>
	<path style="&st1;" d="M296.4,0v188.5c12.8-10.9,26.6-19.8,41.6-26.5c14.9-6.7,32.8-10.1,53.5-10.1c19.4,0,36.5,3.4,51.5,10.1
		c14.9,6.7,27.5,16.1,37.8,28c10.3,12,18,26.2,23.3,42.8c5.2,16.5,7.9,34.5,7.9,53.9V0H296.4z"/>
	<path style="&st1;" d="M393.9,246.1c-8-9.7-19.7-14.5-35.2-14.5c-11.6,0-22.6,2.5-32.8,7.5c-10.3,5-20.1,11.7-29.4,20.2V512h109.4
		V286.6C405.9,269.3,401.9,255.8,393.9,246.1z"/>
</g>
<g>
	<path style="&st1;" d="M690.7,185.6c20.6,0,39.5,3.2,56.5,9.6c17.1,6.4,31.8,15.7,44.1,27.9c12.3,12.2,21.9,27.1,28.8,44.9
		c6.9,17.7,10.3,37.8,10.3,60.1c0,7-0.3,12.7-0.9,17.1c-0.6,4.4-1.7,7.9-3.3,10.5c-1.6,2.6-3.8,4.4-6.5,5.4c-2.7,1-6.1,1.5-10.3,1.5
		H630.1c3,26,10.9,44.9,23.7,56.6c12.8,11.7,29.3,17.5,49.5,17.5c10.8,0,20.1-1.3,27.9-3.9c7.8-2.6,14.7-5.5,20.8-8.7
		c6.1-3.2,11.7-6.1,16.8-8.7c5.1-2.6,10.4-3.9,16.1-3.9c7.4,0,13,2.7,16.8,8.1l27,33.3c-9.6,11-20,19.9-31,26.8
		c-11.1,6.9-22.5,12.3-34.2,16.2c-11.7,3.9-23.4,6.6-35.1,8.1c-11.7,1.5-22.9,2.2-33.4,2.2c-21.8,0-42.3-3.6-61.4-10.6
		c-19.1-7.1-35.8-17.6-50.1-31.7c-14.3-14-25.6-31.4-33.9-52.2c-8.3-20.8-12.5-45-12.5-72.6c0-20.8,3.5-40.5,10.7-59.1
		c7.1-18.6,17.3-34.9,30.6-48.9c13.3-14,29.4-25.1,48.3-33.3C645.5,189.7,666.9,185.6,690.7,185.6z M692.5,249.8
		c-17.8,0-31.7,5.1-41.7,15.2c-10,10.1-16.6,24.7-19.8,43.6h116.1c0-7.4-1-14.6-2.8-21.6c-1.9-7-5-13.2-9.3-18.8
		c-4.3-5.5-10-9.9-17-13.4C711,251.5,702.5,249.8,692.5,249.8z"/>
	<path style="&st1;" d="M940.3,340.7L840.1,190.4h89.4c6.6,0,11.4,0.9,14.6,2.6c3.1,1.7,5.8,4.6,8.2,8.5l55.5,92.1
		c1.2-3.6,2.7-7.1,4.5-10.5c1.8-3.4,3.8-7,6-10.8l39.6-69.3c2.6-4.6,5.5-7.8,8.7-9.8c3.2-1.9,7.1-2.9,11.7-2.9h85.2l-100.2,146.1
		l104.4,165h-89.4c-6.6,0-11.9-1.6-15.9-4.8c-4-3.2-7.3-7-9.9-11.4L997,389.9c-1,3.4-2.2,6.6-3.6,9.6c-1.4,3-2.9,5.8-4.5,8.4
		l-45.6,77.4c-2.4,4.2-5.6,8-9.6,11.2c-4,3.3-9,5-15,5h-82.8L940.3,340.7z"/>
	<path style="&st1;" d="M1330.3,185.6c23.6,0,45.1,3.7,64.5,11.1c19.4,7.4,36,18,50,31.8c13.9,13.8,24.7,30.6,32.4,50.2
		c7.7,19.7,11.5,41.9,11.5,66.5c0,24.8-3.9,47.2-11.5,67c-7.7,19.9-18.5,36.8-32.4,50.7c-13.9,13.9-30.6,24.6-50,32.1
		c-19.4,7.5-40.9,11.2-64.5,11.2c-23.8,0-45.4-3.8-64.9-11.2s-36.3-18.2-50.4-32.1c-14.1-13.9-25-30.8-32.7-50.7
		c-7.7-19.9-11.5-42.2-11.5-67c0-24.6,3.8-46.7,11.5-66.5c7.7-19.7,18.6-36.5,32.7-50.2s30.9-24.4,50.4-31.8
		C1284.8,189.3,1306.5,185.6,1330.3,185.6z M1330.3,437.3c21.4,0,37.1-7.5,47.2-22.6c10.1-15.1,15.2-38,15.2-68.9
		c0-30.8-5.1-53.7-15.2-68.7c-10.1-15-25.9-22.5-47.2-22.5c-22,0-38.1,7.5-48.3,22.5s-15.3,37.9-15.3,68.7
		c0,30.8,5.1,53.8,15.3,68.9C1292.2,429.8,1308.3,437.3,1330.3,437.3z"/>
</g>
</svg>
