<?xml version="1.0" encoding="utf-8"?>
<!-- Generator: Adobe Illustrator 17.0.2, SVG Export Plug-In . SVG Version: 6.00 Build 0)  -->
<!DOCTYPE svg PUBLIC "-//W3C//DTD SVG 1.1//EN" "http://www.w3.org/Graphics/SVG/1.1/DTD/svg11.dtd" [
	<!ENTITY st0 "fill:#FFFFFF;">
	<!ENTITY st1 "fill:#0E83CD;">
]>
<svg version="1.1" id="layer_1" xmlns="http://www.w3.org/2000/svg" xmlns:xlink="http://www.w3.org/1999/xlink" x="0px" y="0px"
	 width="512px" height="512px" viewBox="0 0 512 512" style="enable-background:new 0 0 512 512;" xml:space="preserve">
<rect style="&st0;" width="512" height="512"/>
<g>
	<rect x="-0.1" style="&st1;" width="190.5" height="512"/>
	<path style="&st1;" d="M296.4,0v188.5c12.8-10.9,26.6-19.8,41.6-26.5c14.9-6.7,32.8-10.1,53.5-10.1c19.4,0,36.5,3.4,51.5,10.1
		c14.9,6.7,27.5,16.1,37.8,28c10.3,12,18,26.2,23.3,42.8c5.2,16.5,7.9,34.5,7.9,53.9V0H296.4z"/>
	<path style="&st1;" d="M393.9,246.1c-8-9.7-19.7-14.5-35.2-14.5c-11.6,0-22.6,2.5-32.8,7.5c-10.3,5-20.1,11.7-29.4,20.2V512h109.4
		V286.6C405.9,269.3,401.9,255.8,393.9,246.1z"/>
</g>
</svg>
